# AST/ASF file generated using VICON BodyLanguage
# -----------------------------------------------
:version 1.10
:name VICON
:units
  mass 1.0
  length 0.45
  angle deg
:documentation
   .ast/.asf automatically generated from VICON data using
   VICON BodyBuilder and BodyLanguage model FoxedUp or BRILLIANT.MOD
:root
   order TX TY TZ RX RY RZ
   axis XYZ
   position 0 0 0  
   orientation 0 0 0 
:bonedata
  begin
     id 1 
     name lhipjoint
     direction 0.700308 -0.549349 0.455834 
     length 2.59063 
     axis 0 0 0  XYZ
  end
  begin
     id 2 
     name lfemur
     direction 0.34202 -0.939693 0  
     length 6.31066  
     axis 0 0 20  XYZ
    dof rx ry rz
    limits (-160.0 20.0)
           (-70.0 70.0)
           (-60.0 70.0)
  end
  begin
     id 3 
     name ltibia
     direction 0.34202 -0.939693 0   
     length 7.36093   
     axis 0 0 20   XYZ
    dof rx
    limits (-10.0 170.0)
  end
  begin
     id 4 
     name lfoot
     direction 0.0905332 -0.248738 0.96433   
     length 2.0233   
     axis -90 7.62852e-016 20   XYZ
    dof rx rz
    limits (-45.0 90.0)
           (-70.0 20.0)
  end
  begin
     id 5 
     name ltoes
     direction 1.53573e-011 -4.21855e-011 1   
     length 1.01524   
     axis -90 7.62852e-016 20   XYZ
    dof rx
    limits (-90.0 20.0)
  end
  begin
     id 6 
     name rhipjoint
     direction -0.61416 -0.607328 0.503944   
     length 2.34332  
     axis 0 0 0  XYZ 
  end
  begin
     id 7 
     name rfemur
     direction -0.34202 -0.939693 0   
     length 6.58548   
     axis 0 0 -20   XYZ
    dof rx ry rz
    limits (-160.0 20.0)
           (-70.0 70.0)
           (-70.0 60.0)
  end
  begin
     id 8 
     name rtibia
     direction -0.34202 -0.939693 0   
     length 7.20707   
     axis 0 0 -20   XYZ
    dof rx
    limits (-10.0 170.0)
 end
 begin
     id 9 
     name rfoot
     direction -0.136772 -0.375778 0.916561   
     length 1.92184  
     axis -90 -7.62852e-016 -20   XYZ
    dof rx rz
    limits (-45.0 90.0)
           (-20.0 70.0)
  end
  begin
     id 10 
     name rtoes
     direction -1.53535e-011 -4.21828e-011 1   
     length 0.951089   
     axis -90 -7.62852e-016 -20   XYZ
    dof rx
    limits (-90.0 20.0)
  end
  begin
     id 11 
     name lowerback
     direction -0.0444974 0.988086 -0.147332   
     length 1.9609   
     axis 0 0 0   XYZ
    dof rx ry rz
    limits (-20.0 45.0)
           (-30.0 30.0)
           (-30.0 30.0)
  end
  begin
     id 12 
     name upperback
     direction 0.00613146 0.999513 0.0306081   
     length 1.94944   
     axis 0 0 0   XYZ
    dof rx ry rz
    limits (-20.0 45.0)
           (-30.0 30.0)
           (-30.0 30.0)
  end
  begin
     id 13 
     name thorax
     direction 0.0254621 0.994518 0.101418   
     length 2.0119   
     axis 0 0 0   XYZ
    dof rx ry rz
    limits (-20.0 45.0)
           (-30.0 30.0)
           (-30.0 30.0)
  end
  begin
     id 14 
     name lowerneck
     direction 0.0168698 0.977854 0.208608   
     length 1.6375   
     axis 0 0 0   XYZ
    dof rx ry rz
    limits (-20.0 45.0)
           (-30.0 30.0)
           (-30.0 30.0)
  end
  begin
     id 15 
     name upperneck
     direction -0.0283988 0.989338 -0.142843   
     length 1.6851   
     axis 0 0 0   XYZ
    dof rx ry rz
    limits (-20.0 45.0)
           (-30.0 30.0)
           (-30.0 30.0)
  end
  begin
     id 16
     name head
     direction -0.0129422 0.99741 -0.0707489  
     length 1.69029  
     axis 0 0 0   XYZ
    dof rx ry rz
    limits (-20.0 45.0)
           (-30.0 30.0)
           (-30.0 30.0)
  end
  begin
     id 17 
     name lclavicle
     direction 0.820295 0.564628 -0.0911715  
     length 3.16484  
     axis 0 0 0   XYZ
    dof ry rz
    limits (-20.0 10.0)
           (0.0 20.0)
  end
  begin
     id 18 
     name lhumerus
     direction 1 -4.48969e-011 1.00186e-027   
     length 5.17853   
     axis 180 -30 -90   XYZ
    dof rx ry rz
    limits (-60.0 90.0)
           (-90.0 90.0)
           (-90.0 90.0)
  end
  begin
     id 19
     name lradius
     direction 1 -4.48966e-011 -1.52922e-027   
     length 3.40399   
     axis 180 -30 -90   XYZ
    dof rx
    limits (-10.0 170.0)
  end
  begin
     id 20
     name lwrist
     direction 1 -4.48981e-011 -3.80893e-027   
     length 1.70199   
     axis 1.1049e-015 90 90   XYZ
    dof ry
    limits (-180.0 0.0)
 end
  begin
     id 21 
     name lhand
     direction 1 -4.48957e-011 -7.61786e-027   
     length 0.708964   
     axis 4.86085e-015 90 90   XYZ
    dof rx rz
    limits (-90.0 90.0)
           (-45.0 45.0)
  end
  begin
     id 22 
     name lfingers
     direction 1 -4.48929e-011 -1.52357e-026   
     length 0.571585   
     axis 9.7217e-015 90 90   XYZ
    dof rx
    limits (0.0 90.0)
  end
  begin
     id 23
     name lthumb
     direction 0.707107 -6.34905e-011 0.707107   
     length 0.820685   
     axis -90 45 2.85299e-015   XYZ
    dof rx rz
    limits (-45.0 45.0)
           (-45.0 45.0)
  end
  begin
     id 24 
     name rclavicle
     direction -0.858602 0.463947 -0.218075   
     length 3.35137  
     axis 0 0 0   XYZ 
    dof ry rz
    limits (-10.0 20.0)
           (-20.0 0.0)
  end
  begin
     id 25 
     name rhumerus
     direction -1 -4.48969e-011 -1.98511e-027  
     length 5.42351   
     axis 180 30 90   XYZ
    dof rx ry rz
    limits (-90.0 60.0)
           (-90.0 90.0)
           (-90.0 90.0)
  end
  begin
     id 26 
     name rradius
     direction -1 -4.48961e-011 -2.82624e-027   
     length 3.42066   
     axis 180 30 90   XYZ
    dof rx
    limits (-10.0 170.0)
  end
  begin
     id 27 
     name rwrist
     direction -1 -4.48966e-011 -3.80893e-027   
     length 1.71033   
     axis 1.1049e-015 -90 -90   XYZ
    dof ry
    limits (-180.0 0.0)
  end
  begin
     id 28
     name rhand
     direction -1 -4.48964e-011 -7.61786e-027   
     length 0.743608   
     axis 4.86085e-015 -90 -90   XYZ
    dof rx rz
    limits (-90.0 90.0)
           (-45.0 45.0)
  end
  begin
     id 29
     name rfingers
     direction -1 -4.48961e-011 -1.52357e-026   
     length 0.599516   
     axis 9.7217e-015 -90 -90   XYZ
    dof rx
    limits (0.0 90.0)
  end
  begin
     id 30
     name rthumb
     direction -0.707107 -6.34913e-011 0.707107   
     length 0.860789   
     axis -90 -45 -2.85299e-015   XYZ
    dof rx rz
    limits (-45.0 45.0)
           (-45.0 45.0)
  end
:hierarchy
  begin
    root lhipjoint rhipjoint lowerback
    lhipjoint lfemur
    lfemur ltibia
    ltibia lfoot
    lfoot ltoes
    rhipjoint rfemur
    rfemur rtibia
    rtibia rfoot
    rfoot rtoes
    lowerback upperback
    upperback thorax
    thorax lowerneck lclavicle rclavicle
    lowerneck upperneck
    upperneck head
    lclavicle lhumerus
    lhumerus lradius
    lradius lwrist
    lwrist lhand lthumb
    lhand lfingers
    rclavicle rhumerus
    rhumerus rradius
    rradius rwrist
    rwrist rhand rthumb
    rhand rfingers
  end

#!OML:ASF E:\mmandel\Project 1\Capture day 1\Session 2\Subject.ASF
:FULLY-SPECIFIED
:DEGREES
1004
root 7.61886 14.5138 -1.59959 85.7932 87.1029 65.5886
lowerback 17.7241 1.61355 -5.17095
upperback 2.28151 1.25074 -0.112308
thorax -7.58163 0.806392 2.51104
lowerneck -16.0702 -4.27644 -2.33127
upperneck 5.30745 -4.68213 -4.5435
head 4.11474 -2.59849 -1.41016
rclavicle -1.21259e-014 -2.60408e-014
rhumerus -18.1231 3.12022 -81.5875
rradius 78.9692
rwrist -16.6184
rhand -15.5674 32.9975
rfingers 7.12502
rthumb 10.6175 3.2857
lclavicle -1.21259e-014 -2.60408e-014
lhumerus -14.4814 -14.9963 78.7369
lradius 74.1049
lwrist 24.4588
lhand -16.0784 -30.9889
lfingers 7.12502
lthumb 10.1245 -1.25253
rfemur -58.4736 -12.9046 11.4571
rtibia 70.093
rfoot -31.1798 -4.84355
rtoes -17.479
lfemur -56.8527 20.565 -19.3515
ltibia 65.3278
lfoot -23.9363 -7.6533
ltoes 3.66316
1005
root 7.61816 14.516 -1.55818 89.5231 87.1114 69.3462
lowerback 17.7975 1.59148 -5.16896
upperback 2.27207 1.22019 -0.0825671
thorax -7.6301 0.793463 2.54824
lowerneck -16.0626 -4.39295 -2.33502
upperneck 5.2732 -4.83586 -4.55744
head 4.10032 -2.67398 -1.42523
rclavicle 5.36719e-015 1.74931e-014
rhumerus -18.1096 3.20206 -81.5364
rradius 79.0283
rwrist -16.6253
rhand -15.5105 32.9252
rfingers 7.12502
rthumb 10.6723 3.2162
lclavicle 5.36719e-015 1.74931e-014
lhumerus -14.585 -14.9616 78.7921
lradius 74.2515
lwrist 24.6976
lhand -16.0274 -30.8053
lfingers 7.12502
lthumb 10.1737 -1.0713
rfemur -58.4304 -12.8922 11.5793
rtibia 70.2162
rfoot -31.3358 -4.96151
rtoes -17.2942
lfemur -56.7633 20.542 -19.2123
ltibia 65.1532
lfoot -23.7277 -7.86309
ltoes 3.95432
1006
root 7.62036 14.5182 -1.5191 91.9798 86.9536 71.8255
lowerback 17.7073 1.57954 -5.28545
upperback 2.37457 1.19128 -0.132422
thorax -7.4678 0.778548 2.56984
lowerneck -16.276 -4.47241 -2.27833
upperneck 5.25858 -4.94252 -4.55926
head 4.12593 -2.72652 -1.44831
rclavicle -8.44835e-015 -4.77083e-015
rhumerus -17.8394 3.24664 -81.542
rradius 78.9433
rwrist -16.6596
rhand -15.5216 32.8907
rfingers 7.12502
rthumb 10.6616 3.18121
lclavicle -8.44835e-015 -4.77083e-015
lhumerus -14.5471 -14.893 78.7496
lradius 74.3263
lwrist 24.6161
lhand -16.2147 -30.9057
lfingers 7.12502
lthumb 9.99299 -1.16293
rfemur -58.4516 -12.9044 11.5356
rtibia 70.379
rfoot -31.4779 -5.02297
rtoes -17.0411
lfemur -56.6562 20.602 -19.2816
ltibia 64.9706
lfoot -23.6044 -8.07497
ltoes 4.17146
1007
root 7.62346 14.5116 -1.48018 92.1387 86.8041 71.9019
lowerback 17.5646 1.62429 -5.41714
upperback 2.40038 1.23282 -0.161403
thorax -7.3672 0.799194 2.60567
lowerneck -16.3886 -4.48914 -2.39879
upperneck 5.36048 -4.94375 -4.43251
head 4.18106 -2.72547 -1.39529
rclavicle -2.76311e-014 -4.37326e-014
rhumerus -17.7859 3.31492 -81.4891
rradius 79.0415
rwrist -16.748
rhand -15.5302 32.7262
rfingers 7.12502
rthumb 10.6533 3.01626
lclavicle -2.76311e-014 -4.37326e-014
lhumerus -14.6008 -14.8246 78.8161
lradius 74.3569
lwrist 24.3311
lhand -16.2531 -30.8547
lfingers 7.12502
lthumb 9.95602 -1.11011
rfemur -58.6696 -12.8801 11.5417
rtibia 70.5815
rfoot -31.5695 -4.9799
rtoes -16.7691
lfemur -56.6915 20.7889 -19.3749
ltibia 64.8372
lfoot -23.5227 -8.22841
ltoes 3.78958
1008
root 7.6237 14.5049 -1.44124 93.231 86.8054 72.931
lowerback 17.5318 1.63993 -5.39815
upperback 2.35944 1.25818 -0.127229
thorax -7.3964 0.811872 2.62576
lowerneck -16.4465 -4.53119 -2.53668
upperneck 5.52823 -4.96657 -4.38738
head 4.24656 -2.74108 -1.36629
rclavicle 1.41137e-014 -6.55989e-015
rhumerus -17.9317 3.46051 -81.3524
rradius 79.2112
rwrist -16.8535
rhand -15.5404 32.8021
rfingers 7.12502
rthumb 10.6435 3.09165
lclavicle 1.41137e-014 -6.55989e-015
lhumerus -14.7317 -14.7611 78.9395
lradius 74.3491
lwrist 24.2408
lhand -16.2998 -30.9708
lfingers 7.12502
lthumb 9.91091 -1.22414
rfemur -58.8221 -12.8609 11.7038
rtibia 70.7531
rfoot -31.6337 -4.99323
rtoes -16.6571
lfemur -56.7322 20.8768 -19.2694
ltibia 64.7147
lfoot -23.4213 -8.23089
ltoes 2.97837
1009
root 7.62152 14.5046 -1.40165 95.5305 86.7546 75.2261
lowerback 17.5304 1.62944 -5.46132
upperback 2.3744 1.23706 -0.0852916
thorax -7.37967 0.803654 2.71205
lowerneck -16.3139 -4.52209 -2.59145
upperneck 5.43124 -4.95238 -4.38506
head 4.19732 -2.73171 -1.35064
rclavicle 1.76918e-014 -3.61788e-014
rhumerus -17.896 3.59414 -81.2482
rradius 79.222
rwrist -16.8482
rhand -15.5601 32.9941
rfingers 7.12502
rthumb 10.6245 3.28267
lclavicle 1.76918e-014 -3.61788e-014
lhumerus -14.7355 -14.6782 79.0103
lradius 74.3295
lwrist 24.3986
lhand -16.3593 -31.0932
lfingers 7.12502
lthumb 9.85348 -1.34377
rfemur -58.866 -12.887 11.8072
rtibia 70.8781
rfoot -31.754 -5.07018
rtoes -16.626
lfemur -56.6805 20.7675 -19.1628
ltibia 64.5544
lfoot -23.3114 -8.08015
ltoes 2.16913
1010
root 7.62255 14.511 -1.36128 97.3305 86.6862 77.0475
lowerback 17.5535 1.63901 -5.51629
upperback 2.39334 1.24 -0.079889
thorax -7.37313 0.806656 2.74819
lowerneck -16.1653 -4.47646 -2.5835
upperneck 5.35254 -4.91736 -4.26896
head 4.15242 -2.70534 -1.308
rclavicle 9.93923e-016 -1.19271e-014
rhumerus -17.8947 3.64192 -81.2212
rradius 79.2718
rwrist -16.7976
rhand -15.5883 33.0525
rfingers 7.12502
rthumb 10.5973 3.33969
lclavicle 9.93923e-016 -1.19271e-014
lhumerus -14.7216 -14.6815 79.0226
lradius 74.2936
lwrist 24.5221
lhand -16.2387 -31.0244
lfingers 7.12502
lthumb 9.96984 -1.28051
rfemur -58.8408 -12.871 11.8939
rtibia 70.9545
rfoot -31.8988 -5.1379
rtoes -16.5765
lfemur -56.543 20.7482 -19.0808
ltibia 64.3415
lfoot -23.1756 -8.15423
ltoes 2.05447
1011
root 7.62838 14.5164 -1.32324 98.8883 86.6444 78.6279
lowerback 17.5148 1.63605 -5.43449
upperback 2.43424 1.25317 -0.130408
thorax -7.30598 0.808464 2.64512
lowerneck -16.2247 -4.51807 -2.52057
upperneck 5.36922 -4.9899 -4.20724
head 4.16567 -2.73735 -1.30644
rclavicle 9.34288e-015 -1.39149e-015
rhumerus -17.9262 3.65357 -81.2039
rradius 79.4306
rwrist -16.836
rhand -15.5735 33.0405
rfingers 7.12502
rthumb 10.6116 3.32838
lclavicle 9.34288e-015 -1.39149e-015
lhumerus -14.6388 -14.7413 78.9908
lradius 74.129
lwrist 24.5239
lhand -16.2496 -31.1315
lfingers 7.12502
lthumb 9.9594 -1.38708
rfemur -58.8053 -12.8596 11.9962
rtibia 71.0267
rfoot -31.984 -5.17674
rtoes -16.4361
lfemur -56.3934 20.8117 -19.0019
ltibia 64.1281
lfoot -23.0748 -8.25191
ltoes 1.702
1012
root 7.63137 14.5162 -1.28655 99.4871 86.5778 79.1766
lowerback 17.458 1.65305 -5.42493
upperback 2.42818 1.27784 -0.160871
thorax -7.28283 0.819072 2.6018
lowerneck -16.3377 -4.63073 -2.60687
upperneck 5.45077 -5.12141 -4.12737
head 4.21111 -2.80166 -1.2834
rclavicle -5.1684e-015 -2.80286e-014
rhumerus -17.8296 3.67906 -81.1548
rradius 79.4551
rwrist -16.8775
rhand -15.4865 32.9065
rfingers 7.12502
rthumb 10.6955 3.19878
lclavicle -5.1684e-015 -2.80286e-014
lhumerus -14.6693 -14.71 79.0448
lradius 74.033
lwrist 24.4274
lhand -16.398 -31.3334
lfingers 7.12502
lthumb 9.81618 -1.58218
rfemur -58.9168 -12.8415 12.0859
rtibia 71.1341
rfoot -32.0617 -5.2034
rtoes -16.2489
lfemur -56.3768 20.9269 -18.9952
ltibia 63.9523
lfoot -22.9939 -8.19354
ltoes 0.831422
1013
root 7.628 14.514 -1.24943 100.154 86.5173 79.7668
lowerback 17.5029 1.681 -5.44855
upperback 2.36206 1.30317 -0.153763
thorax -7.38206 0.834523 2.61541
lowerneck -16.4133 -4.7307 -2.66168
upperneck 5.54654 -5.2329 -4.14964
head 4.25236 -2.8613 -1.29462
rclavicle -1.78906e-015 -1.05356e-014
rhumerus -17.7607 3.71732 -81.083
rradius 79.4241
rwrist -16.8652
rhand -15.471 32.7652
rfingers 7.12502
rthumb 10.7104 3.05823
lclavicle -1.78906e-015 -1.05356e-014
lhumerus -14.8429 -14.6288 79.1891
lradius 74.0832
lwrist 24.2815
lhand -16.3633 -31.4215
lfingers 7.12502
lthumb 9.84968 -1.67186
rfemur -59.0899 -12.7995 12.1837
rtibia 71.2707
rfoot -32.1355 -5.21557
rtoes -15.8139
lfemur -56.4199 20.9857 -18.9583
ltibia 63.7941
lfoot -22.8555 -8.17627
ltoes 0.437628
1014
root 7.62498 14.5138 -1.21059 101.849 86.4103 81.4627
lowerback 17.5045 1.66728 -5.54348
upperback 2.38696 1.2703 -0.142239
thorax -7.35516 0.820978 2.68977
lowerneck -16.3502 -4.69168 -2.65939
upperneck 5.4857 -5.18451 -4.16712
head 4.22368 -2.83664 -1.29359
rclavicle -2.5842e-015 2.18663e-014
rhumerus -17.7247 3.78906 -81.0465
rradius 79.4656
rwrist -16.804
rhand -15.4706 32.7956
rfingers 7.12502
rthumb 10.7108 3.0886
lclavicle -2.5842e-015 2.18663e-014
lhumerus -14.8344 -14.5098 79.2791
lradius 74.0745
lwrist 24.2296
lhand -16.3184 -31.3865
lfingers 7.12502
lthumb 9.89299 -1.63897
rfemur -59.1476 -12.7725 12.2138
rtibia 71.4086
rfoot -32.2465 -5.23244
rtoes -15.2807
lfemur -56.3424 20.8684 -18.883
ltibia 63.6181
lfoot -22.7429 -8.05748
ltoes -0.484004
1015
root 7.62314 14.5155 -1.16932 103.482 86.2552 83.0667
lowerback 17.4327 1.64906 -5.69108
upperback 2.41828 1.22441 -0.163021
thorax -7.28002 0.800857 2.76343
lowerneck -16.3254 -4.55242 -2.72643
upperneck 5.56147 -5.00373 -4.00016
head 4.25108 -2.74155 -1.21764
rclavicle 1.55052e-014 3.77691e-014
rhumerus -17.7099 3.78666 -81.071
rradius 79.5392
rwrist -16.7198
rhand -15.5062 32.8084
rfingers 7.12502
rthumb 10.6765 3.09967
lclavicle 1.55052e-014 3.77691e-014
lhumerus -14.8416 -14.4562 79.2611
lradius 74.1535
lwrist 24.2898
lhand -16.3372 -31.2577
lfingers 7.12502
lthumb 9.87484 -1.50929
rfemur -59.2442 -12.7834 12.2328
rtibia 71.5308
rfoot -32.3602 -5.30505
rtoes -15.1288
lfemur -56.3091 20.8235 -18.8991
ltibia 63.4263
lfoot -22.619 -8.06378
ltoes -1.09774
1016
root 7.62411 14.5166 -1.12948 105.72 86.1225 85.2321
lowerback 17.4297 1.61192 -5.73719
upperback 2.36483 1.16109 -0.19999
thorax -7.33071 0.772831 2.7643
lowerneck -16.3722 -4.52849 -2.71424
upperneck 5.6964 -4.97487 -3.95052
head 4.30156 -2.72789 -1.2055
rclavicle -1.25234e-014 -1.15295e-014
rhumerus -17.7156 3.85451 -81.0772
rradius 79.6132
rwrist -16.7526
rhand -15.5779 32.7205
rfingers 7.12502
rthumb 10.6073 3.00822
lclavicle -1.25234e-014 -1.15295e-014
lhumerus -15.0121 -14.471 79.223
lradius 74.2561
lwrist 24.4114
lhand -16.2383 -31.2277
lfingers 7.12502
lthumb 9.97027 -1.48385
rfemur -59.3507 -12.907 12.3104
rtibia 71.6208
rfoot -32.4538 -5.27241
rtoes -14.8888
lfemur -56.332 20.7959 -18.9245
ltibia 63.2393
lfoot -22.4547 -8.3049
ltoes -0.475366
1017
root 7.62934 14.5143 -1.09358 107.446 86.0706 86.9552
lowerback 17.492 1.57177 -5.69094
upperback 2.28277 1.10685 -0.207768
thorax -7.44809 0.748745 2.74101
lowerneck -16.2644 -4.60249 -2.64674
upperneck 5.70325 -5.08423 -4.03577
head 4.28191 -2.78481 -1.24869
rclavicle 9.93923e-016 1.35174e-014
rhumerus -17.7687 4.03027 -81.0783
rradius 79.6524
rwrist -16.8115
rhand -15.5799 32.6361
rfingers 7.12502
rthumb 10.6054 2.92371
lclavicle 9.93923e-016 1.35174e-014
lhumerus -15.2116 -14.4139 79.2752
lradius 74.1706
lwrist 24.3596
lhand -16.1966 -31.2597
lfingers 7.12502
lthumb 10.0105 -1.51778
rfemur -59.3083 -13.0017 12.4193
rtibia 71.6808
rfoot -32.5926 -5.03383
rtoes -13.9622
lfemur -56.2478 20.7648 -18.8169
ltibia 63.0719
lfoot -22.3115 -8.50117
ltoes 0.0650166
1018
root 7.62987 14.5122 -1.05793 107.906 86.0893 87.4122
lowerback 17.5344 1.59175 -5.63401
upperback 2.24651 1.14034 -0.180902
thorax -7.51341 0.765274 2.72876
lowerneck -16.113 -4.59207 -2.59624
upperneck 5.61433 -5.08018 -4.13661
head 4.22691 -2.78457 -1.28176
rclavicle -4.77083e-015 -7.95139e-015
rhumerus -17.8315 4.05941 -81.0175
rradius 79.7288
rwrist -16.7914
rhand -15.6594 32.6129
rfingers 7.12502
rthumb 10.5287 2.89659
lclavicle -4.77083e-015 -7.95139e-015
lhumerus -15.3159 -14.4057 79.3754
lradius 74.11
lwrist 24.2077
lhand -16.3116 -31.227
lfingers 7.12502
lthumb 9.89955 -1.47975
rfemur -59.3249 -12.9579 12.5901
rtibia 71.7249
rfoot -32.646 -4.98973
rtoes -13.3351
lfemur -56.1971 20.8728 -18.6651
ltibia 62.9175
lfoot -22.1149 -8.63347
ltoes 0.26401
